<mxfile host="Electron" modified="2024-06-12T13:23:07.161Z" agent="Mozilla/5.0 (Macintosh; Intel Mac OS X 10_15_7) AppleWebKit/537.36 (KHTML, like Gecko) draw.io/24.2.5 Chrome/120.0.6099.109 Electron/28.1.0 Safari/537.36" etag="hNhFK8SlB4PnJrhHWLNS" version="24.2.5" type="device">
  <diagram name="Page-1" id="70yLm2sDc2d88ZiTmWy4">
    <mxGraphModel dx="2532" dy="2693" grid="1" gridSize="10" guides="1" tooltips="1" connect="1" arrows="1" fold="1" page="1" pageScale="1" pageWidth="1169" pageHeight="1654" math="0" shadow="0">
      <root>
        <mxCell id="0" />
        <mxCell id="1" parent="0" />
        <mxCell id="JAGvlQhkJOv5j_MNLnl7-49" value="&lt;font style=&quot;font-size: 20px;&quot;&gt;Use &lt;span class=&quot;hljs-keyword&quot;&gt;Case&lt;/span&gt; Diagram: SpainFood&lt;span class=&quot;hljs-operator&quot;&gt;-&lt;/span&gt;Software&lt;/font&gt;" style="swimlane;whiteSpace=wrap;html=1;" vertex="1" parent="1">
          <mxGeometry x="-969" y="-1550" width="860" height="960" as="geometry" />
        </mxCell>
        <mxCell id="bPNqI4uHQMhApuTvkbfA-3" value="&lt;font style=&quot;font-size: 18px;&quot;&gt;&lt;b&gt;Konfiguration der Algorithmen&lt;/b&gt;&lt;/font&gt;" style="ellipse;whiteSpace=wrap;html=1;" parent="1" vertex="1">
          <mxGeometry x="-900" y="-1410" width="205" height="120" as="geometry" />
        </mxCell>
        <mxCell id="bPNqI4uHQMhApuTvkbfA-4" value="&lt;font style=&quot;font-size: 18px;&quot;&gt;&lt;b&gt;Teilnehmerverwaltung&lt;/b&gt;&lt;/font&gt;" style="ellipse;whiteSpace=wrap;html=1;" parent="1" vertex="1">
          <mxGeometry x="-900" y="-1110" width="205" height="120" as="geometry" />
        </mxCell>
        <mxCell id="bPNqI4uHQMhApuTvkbfA-5" value="&lt;font style=&quot;font-size: 18px;&quot;&gt;&lt;b&gt;Erzeugung von Paaren&amp;nbsp;&lt;/b&gt;&lt;/font&gt;" style="ellipse;whiteSpace=wrap;html=1;" parent="1" vertex="1">
          <mxGeometry x="-900" y="-1260" width="205" height="120" as="geometry" />
        </mxCell>
        <mxCell id="bPNqI4uHQMhApuTvkbfA-6" value="&lt;p&gt;&lt;font style=&quot;font-size: 18px;&quot;&gt;&lt;b&gt;Erzeugung von Gruppen&lt;/b&gt;&lt;/font&gt;&lt;br&gt;&lt;/p&gt;" style="ellipse;whiteSpace=wrap;html=1;" parent="1" vertex="1">
          <mxGeometry x="-900" y="-950" width="205" height="120" as="geometry" />
        </mxCell>
        <mxCell id="bPNqI4uHQMhApuTvkbfA-7" value="&lt;strong&gt;&lt;font style=&quot;font-size: 18px;&quot;&gt;Überprüfung der Ergebnisse&lt;/font&gt;&lt;/strong&gt;" style="ellipse;whiteSpace=wrap;html=1;" parent="1" vertex="1">
          <mxGeometry x="-900" y="-780" width="205" height="120" as="geometry" />
        </mxCell>
        <mxCell id="bPNqI4uHQMhApuTvkbfA-9" value="&lt;font style=&quot;font-size: 15px;&quot;&gt;Teilnehmer hinzufügen&lt;/font&gt;" style="ellipse;whiteSpace=wrap;html=1;" parent="1" vertex="1">
          <mxGeometry x="-330" y="-1110" width="170" height="100" as="geometry" />
        </mxCell>
        <mxCell id="bPNqI4uHQMhApuTvkbfA-10" value="&lt;font style=&quot;font-size: 15px;&quot;&gt;Teilnehmerinformationen&lt;/font&gt;&lt;div&gt;&lt;font style=&quot;font-size: 15px;&quot;&gt;aktualisieren&lt;/font&gt;&lt;br&gt;&lt;/div&gt;" style="ellipse;whiteSpace=wrap;html=1;" parent="1" vertex="1">
          <mxGeometry x="-330" y="-1220" width="170" height="100" as="geometry" />
        </mxCell>
        <mxCell id="bPNqI4uHQMhApuTvkbfA-11" value="&lt;font style=&quot;font-size: 15px;&quot;&gt;Eingabe der Kriterien&lt;/font&gt;" style="ellipse;whiteSpace=wrap;html=1;" parent="1" vertex="1">
          <mxGeometry x="-530" y="-1480" width="170" height="100" as="geometry" />
        </mxCell>
        <mxCell id="bPNqI4uHQMhApuTvkbfA-12" value="&lt;font style=&quot;font-size: 15px;&quot;&gt;Eingabe der Gewichtungen&lt;/font&gt;" style="ellipse;whiteSpace=wrap;html=1;" parent="1" vertex="1">
          <mxGeometry x="-530" y="-1370" width="170" height="100" as="geometry" />
        </mxCell>
        <mxCell id="bPNqI4uHQMhApuTvkbfA-13" value="&lt;font style=&quot;font-size: 15px;&quot;&gt;Teilnehmer entfernen&lt;/font&gt;" style="ellipse;whiteSpace=wrap;html=1;" parent="1" vertex="1">
          <mxGeometry x="-330" y="-1000" width="170" height="100" as="geometry" />
        </mxCell>
        <mxCell id="bPNqI4uHQMhApuTvkbfA-14" value="&lt;font style=&quot;font-size: 15px;&quot;&gt;Anwendung des Gale-Shapley-Algorithmus&lt;/font&gt;" style="ellipse;whiteSpace=wrap;html=1;" parent="1" vertex="1">
          <mxGeometry x="-530" y="-1255" width="170" height="105" as="geometry" />
        </mxCell>
        <mxCell id="bPNqI4uHQMhApuTvkbfA-16" value="&lt;font style=&quot;font-size: 15px;&quot;&gt;Gruppenvalidierung&lt;/font&gt;" style="ellipse;whiteSpace=wrap;html=1;" parent="1" vertex="1">
          <mxGeometry x="-530" y="-861" width="170" height="100" as="geometry" />
        </mxCell>
        <mxCell id="bPNqI4uHQMhApuTvkbfA-17" value="&lt;font style=&quot;font-size: 15px;&quot;&gt;Gruppierungsalgorithmen anwenden&lt;/font&gt;" style="ellipse;whiteSpace=wrap;html=1;" parent="1" vertex="1">
          <mxGeometry x="-530" y="-965" width="180" height="100" as="geometry" />
        </mxCell>
        <mxCell id="bPNqI4uHQMhApuTvkbfA-18" value="&lt;font style=&quot;font-size: 15px;&quot;&gt;Ergebnisse anzeigen&lt;/font&gt;" style="ellipse;whiteSpace=wrap;html=1;" parent="1" vertex="1">
          <mxGeometry x="-330" y="-815" width="170" height="100" as="geometry" />
        </mxCell>
        <mxCell id="bPNqI4uHQMhApuTvkbfA-19" value="&lt;font style=&quot;font-size: 15px;&quot;&gt;Ergebnisse anpassen&lt;/font&gt;" style="ellipse;whiteSpace=wrap;html=1;" parent="1" vertex="1">
          <mxGeometry x="-330" y="-707.5" width="170" height="100" as="geometry" />
        </mxCell>
        <mxCell id="bPNqI4uHQMhApuTvkbfA-24" value="User" style="shape=umlActor;verticalLabelPosition=bottom;verticalAlign=top;html=1;outlineConnect=0;" parent="1" vertex="1">
          <mxGeometry x="-1154" y="-1150" width="80" height="155" as="geometry" />
        </mxCell>
        <mxCell id="JAGvlQhkJOv5j_MNLnl7-8" value="&lt;font style=&quot;font-size: 13px;&quot;&gt;&amp;lt;&amp;lt;Include&amp;gt;&amp;gt;&lt;/font&gt;" style="endArrow=open;endSize=12;dashed=1;html=1;rounded=0;exitX=1;exitY=0.5;exitDx=0;exitDy=0;entryX=0;entryY=0.5;entryDx=0;entryDy=0;" edge="1" parent="1" source="bPNqI4uHQMhApuTvkbfA-3" target="bPNqI4uHQMhApuTvkbfA-11">
          <mxGeometry width="160" relative="1" as="geometry">
            <mxPoint x="-840" y="-1100" as="sourcePoint" />
            <mxPoint x="-680" y="-1100" as="targetPoint" />
          </mxGeometry>
        </mxCell>
        <mxCell id="JAGvlQhkJOv5j_MNLnl7-9" value="&lt;font style=&quot;font-size: 13px;&quot;&gt;&amp;lt;&amp;lt;Include&amp;gt;&amp;gt;&lt;/font&gt;" style="endArrow=open;endSize=12;dashed=1;html=1;rounded=0;exitX=1;exitY=0.5;exitDx=0;exitDy=0;entryX=0;entryY=0.5;entryDx=0;entryDy=0;" edge="1" parent="1" source="bPNqI4uHQMhApuTvkbfA-3" target="bPNqI4uHQMhApuTvkbfA-12">
          <mxGeometry width="160" relative="1" as="geometry">
            <mxPoint x="-690" y="-1350" as="sourcePoint" />
            <mxPoint x="-530" y="-1425" as="targetPoint" />
          </mxGeometry>
        </mxCell>
        <mxCell id="JAGvlQhkJOv5j_MNLnl7-16" value="&lt;span style=&quot;font-size: 13px;&quot;&gt;&amp;lt;&amp;lt;Include&amp;gt;&amp;gt;&lt;/span&gt;" style="endArrow=open;endSize=12;dashed=1;html=1;rounded=0;exitX=1;exitY=0.5;exitDx=0;exitDy=0;entryX=0.019;entryY=0.613;entryDx=0;entryDy=0;entryPerimeter=0;" edge="1" parent="1" source="bPNqI4uHQMhApuTvkbfA-6" target="bPNqI4uHQMhApuTvkbfA-17">
          <mxGeometry width="160" relative="1" as="geometry">
            <mxPoint x="-710" y="-1060" as="sourcePoint" />
            <mxPoint x="-550" y="-1060" as="targetPoint" />
          </mxGeometry>
        </mxCell>
        <mxCell id="JAGvlQhkJOv5j_MNLnl7-17" value="&lt;span style=&quot;font-size: 13px;&quot;&gt;&amp;lt;&amp;lt;Include&amp;gt;&amp;gt;&lt;/span&gt;" style="endArrow=open;endSize=12;dashed=1;html=1;rounded=0;exitX=1;exitY=0.5;exitDx=0;exitDy=0;entryX=0;entryY=0.5;entryDx=0;entryDy=0;" edge="1" parent="1" source="bPNqI4uHQMhApuTvkbfA-6" target="bPNqI4uHQMhApuTvkbfA-16">
          <mxGeometry width="160" relative="1" as="geometry">
            <mxPoint x="-710" y="-1060" as="sourcePoint" />
            <mxPoint x="-550" y="-1060" as="targetPoint" />
          </mxGeometry>
        </mxCell>
        <mxCell id="JAGvlQhkJOv5j_MNLnl7-18" value="&lt;span style=&quot;font-size: 13px;&quot;&gt;&amp;lt;&amp;lt;Include&amp;gt;&amp;gt;&lt;/span&gt;" style="endArrow=open;endSize=12;dashed=1;html=1;rounded=0;exitX=1;exitY=0.5;exitDx=0;exitDy=0;entryX=0;entryY=0.5;entryDx=0;entryDy=0;" edge="1" parent="1" source="bPNqI4uHQMhApuTvkbfA-7" target="bPNqI4uHQMhApuTvkbfA-18">
          <mxGeometry width="160" relative="1" as="geometry">
            <mxPoint x="-710" y="-970" as="sourcePoint" />
            <mxPoint x="-550" y="-970" as="targetPoint" />
          </mxGeometry>
        </mxCell>
        <mxCell id="JAGvlQhkJOv5j_MNLnl7-21" value="&lt;span style=&quot;font-size: 13px;&quot;&gt;&amp;lt;&amp;lt;Include&amp;gt;&amp;gt;&lt;/span&gt;" style="endArrow=open;endSize=12;dashed=1;html=1;rounded=0;exitX=1;exitY=0.5;exitDx=0;exitDy=0;entryX=0;entryY=0.5;entryDx=0;entryDy=0;" edge="1" parent="1" source="bPNqI4uHQMhApuTvkbfA-5" target="bPNqI4uHQMhApuTvkbfA-14">
          <mxGeometry width="160" relative="1" as="geometry">
            <mxPoint x="-640" y="-1060" as="sourcePoint" />
            <mxPoint x="-480" y="-1060" as="targetPoint" />
          </mxGeometry>
        </mxCell>
        <mxCell id="JAGvlQhkJOv5j_MNLnl7-34" value="" style="endArrow=open;endFill=1;endSize=12;html=1;rounded=0;exitX=0.5;exitY=0.5;exitDx=0;exitDy=0;exitPerimeter=0;entryX=0;entryY=0.5;entryDx=0;entryDy=0;" edge="1" parent="1" source="bPNqI4uHQMhApuTvkbfA-24" target="bPNqI4uHQMhApuTvkbfA-7">
          <mxGeometry width="160" relative="1" as="geometry">
            <mxPoint x="-750" y="-1050" as="sourcePoint" />
            <mxPoint x="-590" y="-1050" as="targetPoint" />
          </mxGeometry>
        </mxCell>
        <mxCell id="JAGvlQhkJOv5j_MNLnl7-35" value="" style="endArrow=open;endFill=1;endSize=12;html=1;rounded=0;exitX=0.5;exitY=0.5;exitDx=0;exitDy=0;exitPerimeter=0;entryX=0;entryY=0.5;entryDx=0;entryDy=0;" edge="1" parent="1" source="bPNqI4uHQMhApuTvkbfA-24" target="bPNqI4uHQMhApuTvkbfA-6">
          <mxGeometry width="160" relative="1" as="geometry">
            <mxPoint x="-750" y="-1050" as="sourcePoint" />
            <mxPoint x="-590" y="-1050" as="targetPoint" />
          </mxGeometry>
        </mxCell>
        <mxCell id="JAGvlQhkJOv5j_MNLnl7-36" value="" style="endArrow=open;endFill=1;endSize=12;html=1;rounded=0;exitX=0.5;exitY=0.5;exitDx=0;exitDy=0;exitPerimeter=0;entryX=0;entryY=0.5;entryDx=0;entryDy=0;" edge="1" parent="1" source="bPNqI4uHQMhApuTvkbfA-24" target="bPNqI4uHQMhApuTvkbfA-4">
          <mxGeometry width="160" relative="1" as="geometry">
            <mxPoint x="-750" y="-1050" as="sourcePoint" />
            <mxPoint x="-590" y="-1050" as="targetPoint" />
          </mxGeometry>
        </mxCell>
        <mxCell id="JAGvlQhkJOv5j_MNLnl7-37" value="" style="endArrow=open;endFill=1;endSize=12;html=1;rounded=0;exitX=0.5;exitY=0.5;exitDx=0;exitDy=0;exitPerimeter=0;entryX=0;entryY=0.5;entryDx=0;entryDy=0;" edge="1" parent="1" source="bPNqI4uHQMhApuTvkbfA-24" target="bPNqI4uHQMhApuTvkbfA-5">
          <mxGeometry width="160" relative="1" as="geometry">
            <mxPoint x="-750" y="-1050" as="sourcePoint" />
            <mxPoint x="-590" y="-1050" as="targetPoint" />
          </mxGeometry>
        </mxCell>
        <mxCell id="JAGvlQhkJOv5j_MNLnl7-38" value="" style="endArrow=open;endFill=1;endSize=12;html=1;rounded=0;exitX=0.5;exitY=0.5;exitDx=0;exitDy=0;exitPerimeter=0;entryX=0;entryY=0.5;entryDx=0;entryDy=0;" edge="1" parent="1" source="bPNqI4uHQMhApuTvkbfA-24" target="bPNqI4uHQMhApuTvkbfA-3">
          <mxGeometry width="160" relative="1" as="geometry">
            <mxPoint x="-750" y="-1050" as="sourcePoint" />
            <mxPoint x="-590" y="-1050" as="targetPoint" />
          </mxGeometry>
        </mxCell>
        <mxCell id="JAGvlQhkJOv5j_MNLnl7-39" value="&lt;font style=&quot;font-size: 13px;&quot;&gt;Extend&lt;/font&gt;" style="endArrow=block;endSize=16;endFill=0;html=1;rounded=0;exitX=0;exitY=0.5;exitDx=0;exitDy=0;entryX=0.961;entryY=0.304;entryDx=0;entryDy=0;entryPerimeter=0;" edge="1" parent="1" source="bPNqI4uHQMhApuTvkbfA-10" target="bPNqI4uHQMhApuTvkbfA-4">
          <mxGeometry width="160" relative="1" as="geometry">
            <mxPoint x="-780" y="-1080" as="sourcePoint" />
            <mxPoint x="-620" y="-1080" as="targetPoint" />
          </mxGeometry>
        </mxCell>
        <mxCell id="JAGvlQhkJOv5j_MNLnl7-40" value="&lt;font style=&quot;font-size: 13px;&quot;&gt;Extend&lt;/font&gt;" style="endArrow=block;endSize=16;endFill=0;html=1;rounded=0;exitX=0;exitY=0.5;exitDx=0;exitDy=0;entryX=0.98;entryY=0.651;entryDx=0;entryDy=0;entryPerimeter=0;" edge="1" parent="1" source="bPNqI4uHQMhApuTvkbfA-13" target="bPNqI4uHQMhApuTvkbfA-4">
          <mxGeometry width="160" relative="1" as="geometry">
            <mxPoint x="-780" y="-1080" as="sourcePoint" />
            <mxPoint x="-620" y="-1080" as="targetPoint" />
          </mxGeometry>
        </mxCell>
        <mxCell id="JAGvlQhkJOv5j_MNLnl7-41" value="&lt;font style=&quot;font-size: 13px;&quot;&gt;Extend&lt;/font&gt;" style="endArrow=block;endSize=16;endFill=0;html=1;rounded=0;exitX=0;exitY=0.5;exitDx=0;exitDy=0;entryX=1;entryY=0.5;entryDx=0;entryDy=0;" edge="1" parent="1" target="bPNqI4uHQMhApuTvkbfA-4">
          <mxGeometry width="160" relative="1" as="geometry">
            <mxPoint x="-330" y="-1070" as="sourcePoint" />
            <mxPoint x="-680" y="-1050" as="targetPoint" />
          </mxGeometry>
        </mxCell>
        <mxCell id="JAGvlQhkJOv5j_MNLnl7-42" value="&lt;font style=&quot;font-size: 13px;&quot;&gt;Extend&lt;/font&gt;" style="endArrow=block;endSize=16;endFill=0;html=1;rounded=0;exitX=0;exitY=0.5;exitDx=0;exitDy=0;entryX=0.964;entryY=0.675;entryDx=0;entryDy=0;entryPerimeter=0;" edge="1" parent="1">
          <mxGeometry width="160" relative="1" as="geometry">
            <mxPoint x="-330.00000000000136" y="-657.5000000000002" as="sourcePoint" />
            <mxPoint x="-702.3800000000001" y="-699" as="targetPoint" />
          </mxGeometry>
        </mxCell>
      </root>
    </mxGraphModel>
  </diagram>
</mxfile>
